<svg xmlns="http://www.w3.org/2000/svg" width="100" height="35" viewBox="0 0 100 32" fill="none">
  <path d="M33.3554 29.807H30.4385L32.4394 17.1602H37.6238C39.2081 17.1602 40.323 17.453 40.9725 18.0348C41.6257 18.6205 41.956 19.4425 41.956 20.5011C41.956 21.0379 41.9073 21.5409 41.8097 22.0027C41.712 22.4606 41.5356 22.9224 41.2803 23.3953C41.0213 23.8646 40.6909 24.2626 40.2817 24.5892C39.8688 24.9157 39.3244 25.186 38.6449 25.3962C37.9654 25.6027 37.1733 25.704 36.2761 25.704H34.0049L33.3554 29.807ZM34.3765 23.3953H36.3962C38.0931 23.3953 38.9378 22.5958 38.9378 20.9929C38.9378 20.4861 38.7914 20.1069 38.506 19.8553C38.217 19.6001 37.7214 19.4688 37.0232 19.4688H35.0035L34.3765 23.3953Z" fill="#FFC200"/>
  <path d="M46.825 27.4926L46.611 29.6062C45.9502 29.8614 45.2745 29.9928 44.5913 29.9928C43.8142 29.9928 43.2173 29.8125 42.8081 29.4634C42.3989 29.1068 42.1924 28.5925 42.1924 27.9243C42.1924 27.7441 42.2036 27.5452 42.2374 27.3274L43.9005 16.7227H46.6936L45.1319 26.6329C45.1168 26.7756 45.1131 26.8771 45.1131 26.9409C45.1131 27.2262 45.1619 27.41 45.267 27.5076C45.3684 27.6052 45.5748 27.6541 45.8827 27.6541C46.138 27.6578 46.4495 27.6052 46.825 27.4926Z" fill="#FFC200"/>
  <path d="M57.8279 20.3711L56.315 29.8008H54.1414L54.2089 27.8001C53.2179 29.2641 51.949 29.996 50.3985 29.996C49.5614 29.996 48.9382 29.7671 48.5215 29.3017C48.101 28.8362 47.8945 28.2167 47.8945 27.4434C47.8945 27.1168 47.9171 26.8277 47.9621 26.5762L48.9607 20.3711H51.7425L50.8565 25.8856C50.8227 26.0657 50.8115 26.2571 50.8115 26.4523C50.8115 27.1618 51.0592 27.511 51.5623 27.511C51.9527 27.511 52.392 27.2895 52.88 26.8466C53.3718 26.4036 53.8335 25.8517 54.2653 25.1835L55.0348 20.3748L57.8279 20.3711Z" fill="#FFC200"/>
  <path d="M58.0791 29.5307L58.5596 27.2032C58.6422 27.2971 59.0176 27.4173 59.6859 27.5599C60.3503 27.6951 60.9773 27.7627 61.5592 27.7627C62.768 27.7627 63.3686 27.4624 63.3686 26.8693C63.3686 26.6553 63.2147 26.4901 62.9069 26.3625C62.6065 26.2273 62.2349 26.1185 61.7994 26.0246C61.364 25.9345 60.9285 25.8181 60.493 25.6679C60.0613 25.5103 59.6934 25.2587 59.3855 24.8946C59.0815 24.5305 58.9313 24.0688 58.9313 23.5094C58.9313 22.4321 59.318 21.6063 60.0951 21.0357C60.8684 20.4651 62.0397 20.1797 63.5976 20.1797C64.1119 20.1797 64.6112 20.2135 65.0993 20.2735C65.5836 20.3411 65.959 20.4087 66.218 20.4838C66.4695 20.5551 66.6385 20.6151 66.7173 20.6564L66.248 22.9051C66.0491 22.7775 65.6812 22.6648 65.1406 22.571C64.6037 22.4734 64.0819 22.4245 63.5826 22.4245C62.3438 22.4245 61.7243 22.7099 61.7243 23.2805C61.7243 23.487 61.8745 23.6522 62.1786 23.7723C62.4864 23.8887 62.8581 23.99 63.286 24.08C63.714 24.1739 64.1457 24.2903 64.5737 24.4367C65.0092 24.5869 65.3771 24.8421 65.6812 25.2062C65.989 25.5703 66.1429 26.0321 66.1429 26.5914C66.1429 27.7513 65.73 28.6072 64.9003 29.159C64.0744 29.7071 62.9369 29.9774 61.4953 29.9774C60.9435 29.9774 60.3841 29.9399 59.821 29.861C59.2616 29.7935 58.8412 29.7221 58.5596 29.6583C58.2856 29.6057 58.1242 29.5608 58.0791 29.5307Z" fill="#FFC200"/>
  <path d="M12.9102 4.00843L13.0867 2.8599C13.1167 2.67971 13.0642 2.4995 12.944 2.3606C12.8277 2.22171 12.655 2.14284 12.471 2.14284H5.49589C5.18805 2.14284 4.92901 2.36429 4.88021 2.66836L3.00692 14.5119C2.98064 14.692 3.02944 14.8761 3.14958 15.015C3.26595 15.1539 3.43864 15.2364 3.61884 15.2364H5.22934C5.53718 15.2364 5.79246 15.015 5.84502 14.7109L6.56956 10.116H10.5602C10.8643 10.116 11.1233 9.89461 11.1721 9.59054L11.3373 8.58827C11.3636 8.40809 11.3147 8.2242 11.1946 8.08531C11.0745 7.94266 10.9018 7.8637 10.7178 7.8637H6.95248L7.44427 4.53779H12.2908C12.6062 4.53404 12.8652 4.31625 12.9102 4.00843ZM49.4714 7.9614L49.4226 7.94252C48.9909 7.81114 48.4879 7.73998 47.936 7.73998C47.0388 7.73998 46.3555 8.10398 45.9088 8.82473C45.4733 9.53422 45.2481 10.3339 45.2481 11.1973C45.2481 11.7416 45.3419 12.1995 45.5296 12.5561C45.7248 12.924 46.0026 13.1155 46.3555 13.1155C46.7497 13.1155 47.204 12.8601 47.7108 12.3609C48.2063 11.8729 48.6605 11.2874 49.051 10.6267L49.4714 7.9614ZM52.3996 6.59878L51.1195 14.7221C51.0707 15.0299 50.8116 15.2478 50.5038 15.2478H49.554C49.3851 15.2478 49.2237 15.1801 49.1073 15.0563C48.9909 14.9361 48.9271 14.771 48.9346 14.602L48.9721 13.5959L48.8595 13.7198C48.8558 13.7236 48.4916 14.129 48.0712 14.4556C47.4442 14.9436 46.7497 15.2064 46.6746 15.2364C46.2879 15.3791 45.8713 15.4503 45.4358 15.4503C44.4785 15.4503 43.7652 15.1087 43.2434 14.4105C42.7253 13.716 42.4663 12.7927 42.4663 11.6741C42.4663 11.0922 42.5263 10.5178 42.639 9.96978C42.7553 9.42171 42.9581 8.86607 43.2471 8.31425C43.5362 7.76618 43.9003 7.27813 44.3283 6.86896C44.7525 6.45978 45.3156 6.12562 45.9951 5.87036C46.6746 5.61885 47.4517 5.4913 48.2964 5.4913C49.3363 5.4913 50.5489 5.62271 51.9004 5.88924C52.2345 5.95681 52.4522 6.26468 52.3996 6.59878ZM59.2021 5.58515C58.5639 5.73531 57.9407 6.12571 57.5277 6.42978C57.0585 6.77514 56.3865 7.5072 56.3752 7.51471L56.2626 7.63862L56.3227 6.34711C56.3302 6.17819 56.2701 6.00927 56.15 5.88539C56.0336 5.76151 55.8684 5.69403 55.6995 5.69403H54.7422C54.4343 5.69403 54.1753 5.91172 54.1265 6.21954L52.8164 14.5269C52.7901 14.7071 52.8426 14.8873 52.959 15.0262C53.0754 15.1651 53.2481 15.2439 53.432 15.2439H54.9111C55.219 15.2439 55.478 15.0225 55.5268 14.7184L56.2176 10.2962C56.6118 9.74065 57.1223 9.26389 57.7417 8.87348C58.2035 8.58443 58.6765 8.39675 59.1495 8.32543C59.4086 8.28414 59.615 8.08533 59.6638 7.82631L59.9491 6.30587C59.9904 6.0994 59.9229 5.88919 59.7689 5.74278C59.6263 5.59638 59.4085 5.5401 59.2021 5.58515ZM29.5221 9.74451C29.5221 9.19644 29.4245 8.73842 29.2368 8.38555C29.0416 8.01767 28.7676 7.82998 28.4147 7.82998C28.0205 7.82998 27.5625 8.08159 27.0595 8.58461C26.5602 9.07637 26.1097 9.65809 25.7155 10.3188L25.295 12.9804L25.3476 12.9955C25.7793 13.1306 26.2786 13.198 26.8342 13.198C27.7352 13.198 28.4184 12.834 28.8614 12.1132C29.2969 11.4075 29.5221 10.6117 29.5221 9.74451ZM31.5231 6.53481C32.0374 7.22928 32.3002 8.15284 32.3002 9.26775C32.3002 10.0035 32.1988 10.7242 31.9999 11.4074C31.8009 12.0906 31.4855 12.755 31.0613 13.3857C30.6409 14.0088 30.0327 14.5194 29.2518 14.8948C28.4672 15.2739 27.5362 15.4692 26.4888 15.4692C26.0759 15.4692 25.554 15.428 24.9384 15.3416L24.8746 15.3341L24.7619 16.4603C24.7582 16.4716 24.7582 16.4827 24.7582 16.4977L24.4316 18.476C24.379 18.7763 24.1237 18.9942 23.8197 18.9942H22.3518C22.1679 18.9942 21.9989 18.9153 21.8825 18.7764C21.7624 18.6375 21.7099 18.4572 21.7399 18.2733L23.6545 6.21954C23.7033 5.91547 23.9623 5.69769 24.2701 5.69769H25.2199C25.3889 5.69769 25.5541 5.76526 25.6704 5.88539C25.7868 6.00927 25.8506 6.17442 25.8431 6.3396L25.8056 7.36074L25.9182 7.21814C25.9295 7.20687 26.8342 6.10693 28.2195 5.67148C28.6024 5.55136 28.9703 5.4913 29.3419 5.4913C30.2842 5.49505 31.0013 5.83283 31.5231 6.53481ZM65.7717 5.69403H64.6155L64.8708 4.04234C64.897 3.86216 64.8445 3.67819 64.7281 3.54305C64.6117 3.40415 64.4353 3.32529 64.2551 3.32529H63.0876C62.8135 3.32529 62.5695 3.50545 62.4907 3.77198L61.9238 5.69403H61.2856C60.9778 5.69403 60.7225 5.9118 60.6737 6.21587L60.5273 7.10926C60.501 7.28944 60.546 7.47333 60.6699 7.61222C60.7863 7.75112 60.959 7.82998 61.1429 7.82998H61.5296L60.8389 12.252C60.7901 12.5298 60.7638 12.819 60.7638 13.123C60.7638 13.9076 60.9703 14.4781 61.3982 14.8686C61.8187 15.2515 62.4606 15.4503 63.3128 15.4503C63.8234 15.4503 64.5442 15.2364 64.6305 15.2064C64.6981 15.1801 64.8257 15.1389 64.8407 15.1314C64.867 15.1201 64.8933 15.1088 64.9158 15.0975C65.096 14.9999 65.2124 14.8235 65.2349 14.6246L65.3438 13.7087C65.3626 13.5172 65.295 13.3219 65.1523 13.1905C65.111 13.1529 65.0697 13.1193 65.0209 13.0893C64.9871 13.0743 64.9571 13.0591 64.9233 13.0479C64.9008 13.0404 64.8445 13.0291 64.623 13.0328C64.5704 13.0328 64.5141 13.0367 64.4578 13.0367C64.3564 13.0367 64.2926 13.0328 64.2589 13.0253C64.1725 13.0103 63.9585 12.9653 63.8496 12.8677C63.7971 12.8226 63.6357 12.68 63.6357 12.1545C63.6357 12.1019 63.6394 12.0231 63.6544 11.9105L64.2889 7.83383H65.5991C65.8956 7.83383 66.1547 7.62358 66.211 7.33453L66.3837 6.44096C66.4212 6.25702 66.3724 6.06946 66.2523 5.92681C66.1359 5.77666 65.9594 5.69403 65.7717 5.69403ZM42.241 5.94551C42.1247 5.78785 41.937 5.69403 41.7417 5.69403H40.195C39.921 5.69403 39.677 5.87803 39.5981 6.13705C39.4668 6.58752 39.219 7.10542 38.8548 7.68352C38.348 8.49812 37.9313 9.00128 37.5784 9.22651L37.5221 9.25272C37.3982 9.31654 37.203 9.41029 36.5198 9.53042L36.4334 9.54545L37.5034 2.8599C37.5296 2.67971 37.4808 2.49574 37.3607 2.3606C37.2443 2.22171 37.0716 2.139 36.8914 2.139H35.4123C35.1045 2.139 34.8455 2.36062 34.7966 2.66469L32.9158 14.5307C32.8858 14.7109 32.9384 14.8911 33.0548 15.03C33.1711 15.1689 33.3476 15.2515 33.5278 15.2515H35.0069C35.3147 15.2515 35.5738 15.03 35.6226 14.726L36.1068 11.6326H37.0341L38.3105 14.8574C38.4043 15.0976 38.6333 15.2515 38.8886 15.2515H40.4954C40.837 15.2515 41.1186 14.9736 41.1186 14.6283C41.1186 14.5457 41.0998 14.4595 41.066 14.3806L39.6057 10.6153L39.6357 10.5891C40.2401 10.0448 40.8595 9.27148 41.479 8.29922C41.8806 7.66856 42.1659 7.06041 42.3349 6.50108C42.3949 6.30588 42.3574 6.10317 42.241 5.94551ZM20.8239 4.87561C21.4396 4.87561 21.9013 4.71794 22.1941 4.39886C22.4907 4.07602 22.6371 3.67819 22.6371 3.17517C22.6371 2.78476 22.5282 2.49202 22.3068 2.29681C22.089 2.10161 21.7512 2.00391 21.3007 2.00391C20.685 2.00391 20.2232 2.16533 19.9342 2.48066C19.6338 2.8035 19.4874 3.20517 19.4874 3.70819C19.4874 4.0986 19.6 4.39144 19.8178 4.58288C20.043 4.78184 20.3696 4.87561 20.8239 4.87561ZM21.3232 5.69403H19.8591C19.5512 5.69403 19.296 5.9118 19.2434 6.21587L17.9332 14.5269C17.907 14.7071 17.9557 14.891 18.0759 15.0262C18.1923 15.1651 18.3649 15.2439 18.5451 15.2439H20.0092C20.3171 15.2439 20.5724 15.0225 20.6249 14.7184L21.9351 6.41108C21.9614 6.23089 21.9126 6.04692 21.7924 5.91178C21.6761 5.77664 21.5071 5.69403 21.3232 5.69403ZM17.0886 2.3606C17.2049 2.4995 17.2612 2.67971 17.2312 2.8599L15.7896 12.057C15.7746 12.2146 15.7709 12.3121 15.7709 12.3759C15.7709 12.6837 15.8309 12.8978 15.9473 13.0066C16.0562 13.108 16.2964 13.1643 16.3377 13.1718C16.4691 13.1906 16.593 13.2582 16.6869 13.3558C16.8108 13.4872 16.8746 13.6672 16.8596 13.8474L16.777 14.6733C16.7582 14.8498 16.6831 14.9961 16.5742 15.0749C16.4729 15.1425 16.349 15.2064 16.1913 15.2665C16.0337 15.3266 15.5907 15.4542 15.2828 15.4542C14.5057 15.4542 13.9051 15.2739 13.4959 14.9173C13.0904 14.5644 12.884 14.0501 12.884 13.3857C12.884 13.2055 12.9027 13.0067 12.9403 12.7927C12.9515 12.7026 14.5057 2.78107 14.5245 2.6722C14.5733 2.36814 14.8323 2.14651 15.1402 2.14651H16.6193C16.7995 2.14276 16.9684 2.22171 17.0886 2.3606Z" fill="#2A55E5"/>
  <path d="M90.5655 9.1397C90.5655 9.1397 94.2257 10.9528 96.0315 11.7223C97.7884 12.4694 97.9873 15.2699 96.054 16.2159C94.1206 17.1618 93.5875 17.3156 93.5875 17.3156C93.5875 17.3156 93.8916 16.5311 93.8503 15.7728C93.7264 14.4214 89.7321 13.3253 87.0854 12.6759C87.0854 12.6759 85.0545 6.30173 84.1347 4.52613C83.2112 2.73927 81.3379 1.99609 81.3379 1.99609L85.764 2.05603C85.764 2.05603 87.2881 1.98092 87.9639 3.61387C88.6359 5.25432 90.5655 9.1397 90.5655 9.1397Z" fill="url(#paint0_linear_12119_24442)"/>
  <path d="M90.3073 23.1102C90.3073 23.1102 88.5128 26.7289 87.7245 28.5796C86.9737 30.3364 84.1205 30.5354 83.1745 28.6021C82.2285 26.6688 82.1309 26.3272 82.1309 26.3272C82.1309 26.3272 82.7015 26.4398 83.61 26.3985C84.9615 26.2746 86.1215 22.2805 86.7709 19.634C86.7709 19.634 93.1416 17.5994 94.9211 16.6835C96.708 15.76 97.4476 13.8867 97.4476 13.8867L97.3875 18.9734C97.3875 18.9734 97.4626 19.8405 95.8296 20.5162C94.1928 21.1844 90.3073 23.1102 90.3073 23.1102Z" fill="url(#paint1_linear_12119_24442)"/>
  <path d="M76.2216 22.8393C76.2216 22.8393 72.5801 21.0373 70.7518 20.2565C68.9949 19.5095 68.7959 16.7054 70.7293 15.7632C72.6627 14.8172 73.4398 14.6445 73.4398 14.6445C73.4398 14.6445 72.9367 15.4478 73.0606 16.3525C73.1883 17.7076 77.055 18.6536 79.6941 19.303C79.6941 19.303 81.8039 25.6396 82.6448 27.4527C83.6734 29.66 85.3778 29.998 85.3778 29.998L80.3586 29.9228C80.3586 29.9228 79.4914 29.9979 78.8156 28.365C78.1474 26.7245 76.2216 22.8393 76.2216 22.8393Z" fill="url(#paint2_linear_12119_24442)"/>
  <path d="M76.5226 8.86423C76.5226 8.86423 78.3245 5.22676 79.1054 3.39485C79.8525 1.63802 82.653 1.4428 83.5991 3.37231C84.5451 5.30557 84.6352 5.65471 84.6352 5.65471C84.6352 5.65471 83.9219 5.66584 83.1673 5.70714C81.8121 5.83477 80.7084 9.70136 80.0627 12.3441C80.0627 12.3441 73.7108 14.42 71.9125 15.2946C69.4386 16.4959 69.3447 18.0351 69.3447 18.0351L69.4461 13.0086C69.4461 13.0086 69.371 12.1415 71.004 11.4658C72.6371 10.7901 76.5226 8.86423 76.5226 8.86423Z" fill="url(#paint3_linear_12119_24442)"/>
  <defs>
    <linearGradient id="paint0_linear_12119_24442" x1="81.433" y1="1.90105" x2="95.9969" y2="16.466" gradientUnits="userSpaceOnUse">
      <stop offset="0.0411" stop-color="#FFF300"/>
      <stop offset="0.2727" stop-color="#FFF300"/>
      <stop offset="0.5022" stop-color="#FFE500"/>
      <stop offset="0.8126" stop-color="#F2A930"/>
    </linearGradient>
    <linearGradient id="paint1_linear_12119_24442" x1="82.9858" y1="28.6038" x2="97.5749" y2="14.0141" gradientUnits="userSpaceOnUse">
      <stop offset="0.1874" stop-color="#F2A930"/>
      <stop offset="0.4978" stop-color="#FFE500"/>
      <stop offset="0.7273" stop-color="#FFF300"/>
      <stop offset="0.9589" stop-color="#FFF300"/>
    </linearGradient>
    <linearGradient id="paint2_linear_12119_24442" x1="70.752" y1="15.5466" x2="85.2903" y2="30.0857" gradientUnits="userSpaceOnUse">
      <stop offset="0.1874" stop-color="#F2A930"/>
      <stop offset="0.4978" stop-color="#FFE500"/>
      <stop offset="0.7273" stop-color="#FFF300"/>
      <stop offset="0.9589" stop-color="#FFF300"/>
    </linearGradient>
    <linearGradient id="paint3_linear_12119_24442" x1="69.2665" y1="17.957" x2="83.8205" y2="3.40221" gradientUnits="userSpaceOnUse">
      <stop offset="0.0411" stop-color="#FFF300"/>
      <stop offset="0.2727" stop-color="#FFF300"/>
      <stop offset="0.5022" stop-color="#FFE500"/>
      <stop offset="0.8126" stop-color="#F2A930"/>
    </linearGradient>
  </defs>
</svg>
